<svg width="37" height="37" viewBox="0 0 37 37" fill="none" xmlns="http://www.w3.org/2000/svg">
<g id="Eye Optic" clip-path="url(#clip0_353_101)">
<g id="eye-optic--health-medical-eye-optic">
<path id="Vector 2095" d="M18.5001 9.60864C7.46883 9.60864 2.8374 19.529 2.8374 19.7348C2.8374 19.9407 7.46883 29.861 18.5001 29.861C29.5313 29.861 34.1627 19.9407 34.1627 19.7348C34.1627 19.529 29.5313 9.60864 18.5001 9.60864Z" stroke="#FEFEFE" stroke-width="2" stroke-linecap="round" stroke-linejoin="round"/>
<path id="Vector 2096" d="M5.7728 15.3717L1.66675 11.2656" stroke="#FEFEFE" stroke-width="2" stroke-linecap="round" stroke-linejoin="round"/>
<path id="Vector 2097" d="M13.5863 10.329L11.9126 4.91431" stroke="#FEFEFE" stroke-width="2" stroke-linecap="round" stroke-linejoin="round"/>
<path id="Vector 2099" d="M31.2273 15.3717L35.3331 11.2656" stroke="#FEFEFE" stroke-width="2" stroke-linecap="round" stroke-linejoin="round"/>
<path id="Vector 2100" d="M23.4136 10.329L25.0873 4.91431" stroke="#FEFEFE" stroke-width="2" stroke-linecap="round" stroke-linejoin="round"/>
<path id="Ellipse 902" d="M14.0368 18.7136C13.7657 19.8973 13.976 21.1402 14.6213 22.1689C15.2667 23.1976 16.2942 23.9278 17.4779 24.1988C18.6616 24.4699 19.9045 24.2596 20.9332 23.6143C21.9619 22.969 22.6921 21.9414 22.9631 20.7577C23.2342 19.574 23.0239 18.3311 22.3786 17.3024C21.7332 16.2738 20.7057 15.5436 19.522 15.2725C18.3383 15.0015 17.0954 15.2117 16.0667 15.8571C15.038 16.5024 14.3079 17.5299 14.0368 18.7136Z" stroke="#FEFEFE" stroke-width="2" stroke-linecap="round" stroke-linejoin="round"/>
</g>
</g>
<defs>
<clipPath id="clip0_353_101">
<rect width="36.8824" height="36.8824" fill="white" transform="translate(0.0588379 0.0588379)"/>
</clipPath>
</defs>
</svg>
