<svg width="37" height="37" viewBox="0 0 37 37" fill="none" xmlns="http://www.w3.org/2000/svg">
<g id="Flat">
<path id="Vector" d="M32.0235 12.0402C33.6236 15.3845 33.9283 19.2029 32.8786 22.7585C31.8289 26.3141 29.4993 29.3549 26.3395 31.2939C23.1797 33.233 19.4136 33.9328 15.7681 33.2583C12.1226 32.5839 8.85622 30.583 6.59929 27.6418C4.34236 24.7006 3.25491 21.0276 3.54683 17.3318C3.83875 13.636 5.48934 10.1793 8.18004 7.62889C10.8707 5.0785 14.4108 3.6152 18.1169 3.52142C21.8231 3.42765 25.4326 4.71004 28.2488 7.12109L31.5158 3.85423C31.7319 3.63806 32.0251 3.51661 32.3308 3.5166C32.6364 3.51659 32.9296 3.63801 33.1458 3.85416C33.3619 4.0703 33.4834 4.36346 33.4834 4.66915C33.4834 4.97484 33.362 5.26801 33.1459 5.48418L24.2056 14.4244L24.2043 14.4258L19.315 19.3151C19.0988 19.5312 18.8057 19.6527 18.5 19.6527C18.1943 19.6527 17.9011 19.5313 17.6849 19.3151C17.4688 19.099 17.3473 18.8058 17.3473 18.5001C17.3473 18.1944 17.4687 17.9013 17.6849 17.6851L21.6785 13.6915C20.5959 12.9753 19.3032 12.6455 18.0098 12.7555C16.7163 12.8655 15.4979 13.4088 14.5517 14.2974C13.6055 15.1861 12.9869 16.3681 12.7961 17.6521C12.6053 18.9361 12.8535 20.2469 13.5004 21.3723C14.1473 22.4977 15.1552 23.3718 16.3607 23.8531C17.5663 24.3344 18.899 24.3947 20.1431 24.0243C21.3872 23.6539 22.4699 22.8744 23.2159 21.8121C23.9618 20.7497 24.3274 19.4667 24.2534 18.1707C24.2448 18.0196 24.266 17.8683 24.3159 17.7254C24.3658 17.5825 24.4434 17.4508 24.5441 17.3379C24.7477 17.1098 25.0335 16.9719 25.3387 16.9546C25.6439 16.9372 25.9435 17.0418 26.1715 17.2453C26.2845 17.3461 26.3765 17.4682 26.4422 17.6045C26.508 17.7408 26.5463 17.8888 26.5549 18.0399C26.66 19.8738 26.1362 21.6886 25.0701 23.1845C24.0039 24.6804 22.4593 25.7677 20.6915 26.2668C18.9237 26.7658 17.0385 26.6467 15.3475 25.9292C13.6566 25.2117 12.2611 23.9386 11.3917 22.3205C10.5222 20.7023 10.231 18.836 10.566 17.0299C10.9011 15.2238 11.8423 13.5861 13.2343 12.3874C14.6262 11.1888 16.3855 10.501 18.2213 10.4376C20.0571 10.3743 21.8596 10.9393 23.3308 12.0392L26.6111 8.75893C24.209 6.76446 21.1547 5.7278 18.0349 5.84804C14.915 5.96828 11.9496 7.23696 9.70815 9.41039C7.4667 11.5838 6.10728 14.5088 5.89099 17.6234C5.6747 20.7381 6.61679 23.8228 8.53631 26.2852C10.4558 28.7476 13.2174 30.414 16.2907 30.9643C19.364 31.5146 22.5322 30.91 25.1869 29.2667C27.8416 27.6234 29.7956 25.0573 30.6735 22.0611C31.5515 19.0649 31.2915 15.85 29.9435 13.0338C29.8117 12.758 29.7949 12.4411 29.8968 12.1529C29.9987 11.8647 30.2109 11.6287 30.4867 11.497C30.7625 11.3652 31.0794 11.3484 31.3676 11.4503C31.6558 11.5522 31.8918 11.7644 32.0235 12.0402Z" fill="#FEFEFE"/>
</g>
</svg>
