<svg width="37" height="38" viewBox="0 0 37 38" fill="none" xmlns="http://www.w3.org/2000/svg">
<g id="icons">
<path id="Vector" d="M2.61027 14.2933L17.5757 33.704C17.6845 33.8458 17.8244 33.9607 17.9847 34.0397C18.1449 34.1188 18.3212 34.1599 18.4999 34.1599C18.6786 34.1599 18.8549 34.1188 19.0152 34.0397C19.1755 33.9607 19.3154 33.8458 19.4242 33.704L34.3896 14.2933C34.5368 14.1017 34.6221 13.8699 34.6343 13.6286C34.6466 13.3873 34.5851 13.1481 34.458 12.9426L29.3817 4.74851C29.2772 4.57894 29.131 4.4389 28.9572 4.34169C28.7833 4.24448 28.5875 4.19334 28.3883 4.19312H8.61158C8.41239 4.19334 8.21656 4.24448 8.0427 4.34169C7.86883 4.4389 7.72271 4.57894 7.6182 4.74851L2.54184 12.9426C2.4148 13.1481 2.35331 13.3873 2.36554 13.6286C2.37776 13.8699 2.46312 14.1017 2.61027 14.2933Z" stroke="#FEFEFE" stroke-width="2" stroke-linecap="round" stroke-linejoin="round"/>
<path id="Vector_2" d="M3.5166 13.4136H33.4835" stroke="#FEFEFE" stroke-width="2" stroke-linecap="round" stroke-linejoin="round"/>
<path id="Vector_3" d="M28.8732 5.34569L25.4154 13.4137L18.5 4.19312" stroke="#FEFEFE" stroke-width="2" stroke-linecap="round" stroke-linejoin="round"/>
<path id="Vector_4" d="M8.12695 5.34569L11.5847 13.4137L18.5001 4.19312" stroke="#FEFEFE" stroke-width="2" stroke-linecap="round" stroke-linejoin="round"/>
<path id="Vector_5" d="M18.4999 33.0073L11.5845 13.4136" stroke="#FEFEFE" stroke-width="2" stroke-linecap="round" stroke-linejoin="round"/>
<path id="Vector_6" d="M18.5 33.0073L25.4154 13.4136" stroke="#FEFEFE" stroke-width="2" stroke-linecap="round" stroke-linejoin="round"/>
</g>
</svg>
